<svg aria-hidden="true" style="position: absolute; width: 0; height: 0; overflow: hidden;" version="1.1" xmlns="http://www.w3.org/2000/svg" xmlns:xlink="http://www.w3.org/1999/xlink">
<defs>
<symbol id="clock-icon" viewBox="0 0 32 32">
<path d="M20.9 22.433l1.5-1.5-5.3-5.333v-6.7h-2v7.5l5.8 6.033zM16 29.333q-2.733 0-5.167-1.050t-4.25-2.867-2.867-4.25-1.050-5.167 1.050-5.167 2.867-4.25 4.25-2.867 5.167-1.050 5.167 1.050 4.25 2.867 2.867 4.25 1.050 5.167-1.050 5.167-2.867 4.25-4.25 2.867-5.167 1.050zM16 27.333q4.667 0 8-3.333t3.333-8-3.333-8-8-3.333-8 3.333-3.333 8 3.333 8 8 3.333z"></path>
</symbol>
<symbol id="geo-icon" viewBox="0 0 32 32">
<path d="M15.072 30.298c0.26 0.179 0.581 0.286 0.928 0.286s0.668-0.107 0.934-0.29l-0.006 0.004c0.486-0.33 11.918-8.218 11.872-18.064 0-6.746-5.744-12.234-12.8-12.234s-12.8 5.488-12.8 12.224c-0.046 9.856 11.386 17.744 11.872 18.074zM16 3.056c5.294 0 9.6 4.115 9.6 9.184 0.032 6.784-7.021 12.878-9.6 14.877-2.578-2-9.632-8.096-9.6-14.886 0-5.059 4.306-9.174 9.6-9.174z"></path>
<path d="M15.6 17.032c3.53 0 6.4-2.742 6.4-6.115 0-3.374-2.87-6.117-6.4-6.117s-6.4 2.742-6.4 6.117c0 3.373 2.87 6.115 6.4 6.115zM15.6 7.858c1.765 0 3.2 1.373 3.2 3.059s-1.435 3.058-3.2 3.058-3.2-1.371-3.2-3.058 1.435-3.059 3.2-3.059z"></path>
</symbol>
<symbol id="instagram-icon" viewBox="0 0 32 32">
<path d="M24.91 0.469c-2.673-0.299-5.772-0.47-8.91-0.47s-6.237 0.171-9.288 0.503l0.377-0.033c-3.41 0.366-6.164 2.926-6.564 6.197-0.335 2.59-0.527 5.585-0.527 8.626s0.191 6.036 0.563 8.976l-0.036-0.35c0.4 3.271 3.152 5.831 6.564 6.196 5.922 0.626 11.899 0.626 17.82 0 3.41-0.363 6.164-2.926 6.564-6.196 0.335-2.59 0.527-5.585 0.527-8.626s-0.191-6.036-0.563-8.976l0.036 0.35c-0.4-3.271-3.154-5.831-6.564-6.197zM7.371 2.88c2.589-0.29 5.59-0.455 8.629-0.455s6.041 0.165 8.995 0.487l-0.365-0.032c2.252 0.244 4.059 1.938 4.32 4.071 0.324 2.505 0.509 5.402 0.509 8.342s-0.185 5.837-0.544 8.68l0.035-0.338c-0.15 1.093-0.666 2.045-1.418 2.748l-0.003 0.002c-0.769 0.719-1.769 1.198-2.878 1.315l-0.022 0.002c-2.589 0.29-5.59 0.455-8.629 0.455s-6.041-0.165-8.995-0.487l0.365 0.032c-1.13-0.119-2.131-0.599-2.902-1.32l0.003 0.003c-0.755-0.705-1.271-1.657-1.42-2.726l-0.003-0.024c-0.324-2.505-0.51-5.402-0.51-8.343s0.185-5.838 0.545-8.681l-0.035 0.338c0.151-1.093 0.668-2.044 1.42-2.746l0.003-0.002c0.768-0.72 1.769-1.201 2.878-1.319l0.022-0.002z"></path>
<path d="M22.667 7.035c0-0.452 0.187-0.884 0.521-1.204 0.332-0.32 0.786-0.498 1.257-0.498s0.924 0.178 1.257 0.498c0.334 0.32 0.521 0.752 0.521 1.204-0.002 0.473-0.202 0.899-0.52 1.201l-0.001 0.001c-0.332 0.32-0.786 0.498-1.257 0.498s-0.924-0.178-1.257-0.498c-0.319-0.302-0.519-0.729-0.521-1.201v-0z"></path>
<path d="M15.556 7.111c-2.24 0-4.388 0.85-5.972 2.364-1.517 1.435-2.464 3.459-2.473 5.705v0.002c0 2.139 0.889 4.192 2.473 5.707 1.546 1.463 3.637 2.363 5.94 2.363 0.011 0 0.022-0 0.034-0h-0.002c2.24 0 4.388-0.85 5.972-2.364 1.516-1.435 2.463-3.458 2.473-5.703v-0.002c-0.009-2.247-0.956-4.271-2.469-5.703l-0.004-0.003c-1.546-1.464-3.638-2.364-5.941-2.364-0.011 0-0.021 0-0.032 0h0.002zM9.778 15.182c0-1.465 0.608-2.869 1.692-3.906 1.058-1.002 2.489-1.618 4.065-1.618 0.007 0 0.014 0 0.021 0h-0.001c1.532 0 3.003 0.583 4.085 1.618 1.084 1.036 1.692 2.441 1.692 3.904 0 1.465-0.608 2.869-1.692 3.906-1.084 1.035-2.553 1.618-4.085 1.618-0.006 0-0.013 0-0.020 0-1.576 0-3.008-0.616-4.068-1.62l0.003 0.003c-1.038-0.982-1.686-2.368-1.692-3.905v-0.001z"></path>
</symbol>
<symbol id="phone-icon" viewBox="0 0 32 32">
<path d="M11.317 13.051c1.72 2.835 4.098 5.113 6.93 6.667l0.095 0.048 1.572-2.103c0.252-0.338 0.626-0.576 1.049-0.668 0.12-0.028 0.257-0.043 0.398-0.043 0.312 0 0.606 0.077 0.863 0.214l-0.010-0.005c2.364 1.257 5.135 2.088 8.076 2.314l0.071 0.004c0.444 0.034 0.862 0.228 1.164 0.54 0.304 0.315 0.473 0.725 0.473 1.154v7.58c-0.002 0.442-0.176 0.842-0.459 1.138l0.001-0.001c-0.292 0.305-0.688 0.507-1.13 0.551l-0.007 0.001c-0.946 0.094-1.897 0.142-2.848 0.142-15.218-0.002-27.556-11.792-27.556-26.338 0-0.912 0.048-1.819 0.146-2.716 0.049-0.44 0.262-0.823 0.576-1.091l0.002-0.002c0.325-0.279 0.75-0.436 1.191-0.436h7.932c0.448 0 0.878 0.16 1.207 0.452 0.315 0.277 0.525 0.667 0.565 1.106l0 0.006c0.247 2.897 1.117 5.546 2.473 7.876l-0.048-0.089c0.137 0.234 0.219 0.516 0.219 0.816 0 0.134-0.016 0.265-0.047 0.389l0.002-0.011c-0.105 0.42-0.356 0.77-0.695 1.001l-0.006 0.004-2.201 1.5zM6.834 11.936l3.378-2.306c-0.899-1.807-1.58-3.903-1.934-6.109l-0.017-0.126h-4.688c-0.011 0.283-0.016 0.567-0.016 0.85-0.002 12.67 10.743 22.939 23.998 22.939 0.297 0 0.594-0.005 0.889-0.018v-4.48c-2.432-0.351-4.629-1.003-6.677-1.926l0.156 0.063-2.412 3.228c-1.117-0.417-2.048-0.846-2.942-1.334l0.118 0.059-0.103-0.057c-3.483-1.905-6.312-4.615-8.304-7.891l-0.055-0.097-0.059-0.1c-0.453-0.753-0.9-1.639-1.283-2.56l-0.051-0.137z"></path>
</symbol>
<symbol id="hero-phone-icon" viewBox="0 0 32 32">
<path fill="#36b3c6" style="fill: var(--color1, #36b3c6)" d="M27.61 19.605c-0.154-1.067-0.978-1.899-2.038-2.147-4.123-0.966-5.157-3.341-5.331-5.974-0.731-0.136-2.032-0.283-4.24-0.283s-3.509 0.147-4.24 0.283c-0.174 2.634-1.208 5.008-5.331 5.974-1.061 0.25-1.885 1.080-2.038 2.147l-0.795 5.507c-0.28 1.939 1.144 3.688 3.125 3.688h18.56c1.979 0 3.405-1.749 3.125-3.688l-0.795-5.507zM16 24.787c-2.232 0-4.042-1.792-4.042-4s1.81-4 4.042-4c2.232 0 4.042 1.792 4.042 4s-1.811 4-4.042 4zM31.92 9.6c-0.038-2.4-6.147-6.398-15.92-6.4-9.774 0.002-15.883 4-15.92 6.4s0.034 5.523 4.056 5.003c4.706-0.61 4.416-2.253 4.416-4.602 0-1.638 3.827-2.034 7.448-2.034s7.446 0.395 7.448 2.034c0 2.349-0.29 3.992 4.416 4.602 4.021 0.52 4.093-2.603 4.056-5.003z"></path>
</symbol>
<symbol id="products-slide-left-icon" viewBox="0 0 32 32">
<path d="M23.48 31.744c0.586-0.003 1.059-0.478 1.059-1.064 0-0.292-0.118-0.557-0.309-0.749l-14.119-14.117 13.915-13.913c0.191-0.192 0.309-0.457 0.309-0.75s-0.118-0.558-0.309-0.75l0 0c-0.192-0.191-0.457-0.309-0.75-0.309s-0.558 0.118-0.75 0.309l-14.671 14.663c-0.191 0.192-0.309 0.457-0.309 0.75s0.118 0.558 0.309 0.75l14.869 14.868c0.191 0.194 0.456 0.313 0.75 0.313 0.002 0 0.004 0 0.007-0h-0z"></path>
</symbol>
<symbol id="products-slide-right-icon" viewBox="0 0 32 32">
<path d="M8.52 0.256c-0.586 0.003-1.059 0.478-1.059 1.064 0 0.292 0.118 0.557 0.309 0.749l14.119 14.117-13.915 13.913c-0.191 0.192-0.309 0.457-0.309 0.75s0.118 0.558 0.309 0.75l-0-0c0.413 0.413 1.088 0.413 1.5 0l14.669-14.663c0.191-0.192 0.309-0.457 0.309-0.75s-0.118-0.558-0.309-0.75l-14.868-14.868c-0.191-0.194-0.456-0.313-0.75-0.313-0.002 0-0.004 0-0.005 0h0z"></path>
</symbol>
</defs>
</svg>
